<?xml version="1.0" encoding="iso-8859-1"?>
<!-- Generator: Adobe Illustrator 19.0.0, SVG Export Plug-In . SVG Version: 6.00 Build 0)  -->
<svg version="1.1" id="Layer_1" xmlns="http://www.w3.org/2000/svg" xmlns:xlink="http://www.w3.org/1999/xlink" x="0px" y="0px"
	 viewBox="0 0 512 512" style="enable-background:new 0 0 512 512;" xml:space="preserve">
<g>
	<g>
		<g>
			<path d="M501.333,42.666c-5.892,0-10.667,4.777-10.667,10.667v21.333h-42.664V53.333c0-5.891-4.776-10.667-10.667-10.667
				s-10.667,4.777-10.667,10.667v21.333H85.333V53.333c0-5.891-4.776-10.667-10.667-10.667c-5.891,0-10.667,4.777-10.667,10.667
				v21.333H21.335V53.333c0-5.891-4.776-10.667-10.667-10.667S0,47.443,0,53.333v405.334c0,5.892,4.776,10.667,10.667,10.667
				s10.667-4.776,10.667-10.667v-21.333h42.664v21.333c0,5.892,4.777,10.667,10.667,10.667c5.892,0,10.667-4.776,10.667-10.667
				v-21.333h341.333v21.333c0,5.892,4.776,10.667,10.668,10.667c5.892,0,10.667-4.776,10.667-10.667v-21.333h42.664v21.333
				c0,5.892,4.776,10.667,10.667,10.667S512,464.558,512,458.667V53.333C512,47.443,507.224,42.666,501.333,42.666z M63.999,415.999
				H21.335v-64.001h42.664V415.999z M63.999,330.663H21.335v-63.999h42.664V330.663z M63.999,245.33H21.335v-63.994h42.664V245.33z
				 M63.999,159.999H21.335V96.001h42.664V159.999z M426.666,415.999H85.333V96.001h341.333V415.999z M490.665,415.999h-42.664
				v-64.001h42.664V415.999z M490.665,330.663h-42.664v-63.999h42.664V330.663z M490.665,245.329h-42.664v-63.994h42.664V245.329z
				 M490.665,159.999h-42.664V96.001h42.664V159.999z"/>
			<path d="M310.771,138.671h0.254c5.892,0,10.667-4.777,10.667-10.667c0-5.891-4.776-10.667-10.667-10.667h-0.254
				c-5.891,0-10.667,4.777-10.667,10.667C300.103,133.895,304.88,138.671,310.771,138.671z"/>
			<path d="M341.669,138.667h52.997c5.892,0,10.667-4.777,10.667-10.667c0-5.891-4.776-10.667-10.667-10.667h-52.997
				c-5.892,0-10.667,4.777-10.667,10.667C331.002,133.89,335.777,138.667,341.669,138.667z"/>
			<path d="M201.229,373.333h-0.254c-5.891,0-10.667,4.777-10.667,10.667c0,5.891,4.777,10.667,10.667,10.667h0.254
				c5.891,0,10.667-4.777,10.667-10.667C211.897,378.11,207.12,373.333,201.229,373.333z"/>
			<path d="M117.334,394.668h52.997c5.891,0,10.667-4.777,10.667-10.667c0-5.891-4.777-10.667-10.667-10.667h-52.997
				c-5.892,0-10.667,4.777-10.667,10.667C106.666,389.891,111.442,394.668,117.334,394.668z"/>
			<path d="M170.168,312.836h133.833c5.891,0,10.667-4.777,10.667-10.667v-8.12l23.685,8.17c3.261,1.128,6.863,0.603,9.671-1.398
				c2.808-2.001,4.475-5.238,4.475-8.687v-72.274c0-3.447-1.667-6.683-4.475-8.684c-2.809-2.002-6.411-2.524-9.671-1.398
				l-23.685,8.17v-8.12c0-5.892-4.777-10.667-10.667-10.667H170.168c-5.892,0-10.667,4.776-10.667,10.667v92.342
				C159.5,308.059,164.276,312.836,170.168,312.836z M180.835,220.496h112.498v12.418c0,3.448,1.667,6.685,4.475,8.687
				c2.808,2.002,6.409,2.524,9.67,1.398l23.686-8.17v42.341L307.479,269c-3.26-1.127-6.863-0.603-9.67,1.398
				c-2.809,2.001-4.475,5.238-4.475,8.687v12.418H180.835V220.496z"/>
		</g>
	</g>
</g>
<g>
</g>
<g>
</g>
<g>
</g>
<g>
</g>
<g>
</g>
<g>
</g>
<g>
</g>
<g>
</g>
<g>
</g>
<g>
</g>
<g>
</g>
<g>
</g>
<g>
</g>
<g>
</g>
<g>
</g>
</svg>
