<?xml version="1.0" ?><svg width="512px" height="512px" viewBox="0 0 512 512" data-name="Layer 1" id="Layer_1" xmlns="http://www.w3.org/2000/svg"><title/><path d="M487.85,31.8a6,6,0,0,0-3.1-4.4,6.08,6.08,0,0,0-5.39-.1C357.74,86,272.65,150.37,224.8,219.43c-7.06-7.19-74.09-72.5-204-91.25A6,6,0,0,0,14,134.07c0,2.75,1.73,276,211.61,350.43a5.79,5.79,0,0,0,.91.16,4.44,4.44,0,0,0,.52.15h.05c.89.08,5.35.46,12.57.46,31.23,0,113.69-7,177.79-74.72C490,333.84,513.73,206.41,487.85,31.8ZM26.13,141.05c125.63,20.18,190.09,86.64,190.74,87.31.43.46,1.07.43,1.6.72q-22.74,35.6-32.33,72.79C136.57,232,71.42,180.21,70.74,179.66A6,6,0,0,0,63.35,189c.71.54,70.15,55.74,119.26,128.68-12.45,68.95,12.47,122.43,28.53,148.18C45,392.82,27.85,182.08,26.13,141.05ZM408.91,402.24c-64.49,68.27-151.14,71.48-174.62,71,4.47-33,31.58-191.45,149.71-295.59a6,6,0,1,0-7.89-8.94c-113,99.66-144.85,247.42-152.37,294.56-14.94-23.06-43.32-78.39-28.47-149.07,20.87-99.34,115.72-191,282-272.59C500.63,208.16,477.65,329.47,408.91,402.24Z"/></svg>